<?xml version="1.0" encoding="iso-8859-1"?>
<!-- Generator: Adobe Illustrator 18.0.0, SVG Export Plug-In . SVG Version: 6.00 Build 0)  -->
<!DOCTYPE svg PUBLIC "-//W3C//DTD SVG 1.1//EN" "http://www.w3.org/Graphics/SVG/1.1/DTD/svg11.dtd">
<svg version="1.1" id="Capa_1" xmlns="http://www.w3.org/2000/svg" xmlns:xlink="http://www.w3.org/1999/xlink" x="0px" y="0px"
	 viewBox="0 0 397.204 397.204" style="enable-background:new 0 0 397.204 397.204;" xml:space="preserve">
<g>
	<path d="M394.568,96.293c-2.799-4.072-7.424-6.508-12.365-6.508H121.691L87.887,52.225c-3.793-4.215-9.195-6.621-14.865-6.621
		L20.002,45.6C20,45.6,20,45.6,20,45.6c-11.045,0-20,8.953-20,19.998c-0.002,11.045,8.953,20,19.998,20.002l44.113,0.002
		l27.275,30.307l57.793,150.277c2.229,5.793,7.793,9.615,14,9.615h159.023c6.207,0,11.773-3.822,14-9.615l60-156.016
		C397.978,105.557,397.365,100.367,394.568,96.293z"/>
	<circle cx="186.463" cy="321.604" r="30"/>
	<circle cx="296.711" cy="321.604" r="30"/>
</g>
<g>
</g>
<g>
</g>
<g>
</g>
<g>
</g>
<g>
</g>
<g>
</g>
<g>
</g>
<g>
</g>
<g>
</g>
<g>
</g>
<g>
</g>
<g>
</g>
<g>
</g>
<g>
</g>
<g>
</g>
</svg>
